# xmcd
#
# Track frame offsets:
# 150
# 8580
# 24306
# 39713
# 61389
# 80626
# 98515
# 120551
# 139131
# 157632
# 181446
# 201514
# 215614
# 229981
# 247009
#
# Disc length: 3418 seconds
#
#
# Revision: 0
# Processed by: cddbd v1.5.2PL0 Copyright (c) Steve Scherf et al.
# Submitted via: Nero 7, 11, 10, 0 
#
DISCID=c70d580f
DTITLE=Tim Casey and The Bluescats - Blues Bidness
DYEAR=1996
DGENRE=Blues
TTITLE0=Cruzin' Pt. 1
TTITLE1=She's So Fine
TTITLE2=Rampage
TTITLE3=Blues Vampire
TTITLE4=All Night Party
TTITLE5=24hr Bluesman
TTITLE6=Rock The Blues
TTITLE7=Trouble
TTITLE8=All Blues
TTITLE9=Two Girls
TTITLE10=She Did Me Right
TTITLE11=Short, Black and Tight
TTITLE12=Green Onions
TTITLE13=Lowdown Dirty Shame
TTITLE14=Cruzin' Pt. 2
EXTD=
EXTT0=Cruzin' Pt. 1
EXTT1=She's So Fine
EXTT2=Rampage
EXTT3=Blues Vampire
EXTT4=All Night Party
EXTT5=24hr Bluesman
EXTT6=Rock The Blues
EXTT7=Trouble
EXTT8=All Blues
EXTT9=Two Girls
EXTT10=She Did Me Right
EXTT11=Short, Black and Tight
EXTT12=Green Onions
EXTT13=Lowdown Dirty Shame
EXTT14=Cruzin' Pt. 2
PLAYORDER=
